# xmcd
#
# Track frame offsets: 
#        150
#        13405
#        30648
#        48283
#        66991
#        76832
#        91356
#        101428
#        113910
#        125523
#        144858
#        149711
#        157960
#        166790
#        178272
#        194298
#        208762
#        226113
#        233545
#        247749
#        263424
#        277518
#        294304
#        308785
#
# Disc length: 4323 seconds
#
# Revision: 0
# Processed by: cddbd v1.5.2PL0 Copyright (c) Steve Scherf et al.
# Submitted via: ExactAudioCopy v1.1
#
DISCID=3a10e118
DTITLE=Lightnin' Hopkins - The Acoustic Years Disc 1
DYEAR=1900
DGENRE=Blues
TTITLE0=Penitentiary Blues
TTITLE1=Bad Luck and Trouble
TTITLE2=Come Go Home With Me
TTITLE3=Trouble Stay 'Way From My Door
TTITLE4=See That My Grave Is Kept Clean
TTITLE5=Goin' Back To Florida
TTITLE6=Reminiscences of Blind Lemon
TTITLE7=Fan It
TTITLE8=Tell Me, Baby
TTITLE9=She's Mine
TTITLE10=Til the Gin Gets Here
TTITLE11=So Long Baby
TTITLE12=Bunion Stew
TTITLE13=You Got To Work To Get Your Pay
TTITLE14=Go Down Ol' Hannah
TTITLE15=Santa Fe Blues
TTITLE16=Hear My Black Dog Bark
TTITLE17=Long TIme
TTITLE18=Rainy Day Blues
TTITLE19=Worryin' My Mind
TTITLE20=Baby!
TTITLE21=Long Gone Like A Turkey Through the Corn
TTITLE22=See See Rider
TTITLE23=Prison Blues Come Down On Me
EXTD=
EXTT0=
EXTT1=
EXTT2=
EXTT3=
EXTT4=
EXTT5=
EXTT6=
EXTT7=
EXTT8=
EXTT9=
EXTT10=
EXTT11=
EXTT12=
EXTT13=
EXTT14=
EXTT15=
EXTT16=
EXTT17=
EXTT18=
EXTT19=
EXTT20=
EXTT21=
EXTT22=
EXTT23=
PLAYORDER=
